<svg xmlns="http://www.w3.org/2000/svg" width="18" height="11.75" viewBox="0 0 18 11.75">
  <path id="delivery-truck" d="M17.992,94.979c-.07-.358-.691-3.511-.844-3.971a8.54,8.54,0,0,0-2.368-3.37A5.475,5.475,0,0,0,11.487,86H2.4a.855.855,0,0,0-.854.854v1.342H.915a.418.418,0,1,0,0,.836h.629v1H.418a.418.418,0,1,0,0,.836H1.544v4.2a.855.855,0,0,0,.854.854H3.44a2.153,2.153,0,0,0,4.258,0h3.833a2.153,2.153,0,0,0,4.258,0h1.356A.855.855,0,0,0,18,95.06.421.421,0,0,0,17.992,94.979Zm-1.685-3.842H12V86.907A7.935,7.935,0,0,1,16.307,91.137ZM5.569,96.91a1.317,1.317,0,1,1,1.317-1.317A1.319,1.319,0,0,1,5.569,96.91Zm8.092,0a1.317,1.317,0,1,1,1.317-1.317A1.319,1.319,0,0,1,13.661,96.91Zm3.464-1.832H15.752a2.153,2.153,0,0,0-4.182,0H7.66a2.153,2.153,0,0,0-4.182,0H2.4a.018.018,0,0,1-.018-.018v-4.2H7.5a.418.418,0,1,0,0-.836H2.38v-1H4.737a.418.418,0,0,0,0-.836H2.38V86.85a.018.018,0,0,1,.018-.018h8.767v4.723a.418.418,0,0,0,.418.418h4.941c.178.813.423,2.115.631,3.079C17.159,95.072,17.147,95.078,17.125,95.078Z" transform="translate(0 -85.996)" fill="#fff" opacity="0.8"/>
</svg>
