<svg xmlns="http://www.w3.org/2000/svg" width="14.615" height="9.744" viewBox="0 0 14.615 9.744">
  <g id="Group_825" data-name="Group 825" transform="translate(-1065.482 -14)">
    <g id="united-kingdom" transform="translate(1065.483 -71.33)">
      <rect id="Rectangle_105" data-name="Rectangle 105" width="14.616" height="9.744" transform="translate(0 85.33)" fill="#f0f0f0"/>
      <path id="Path_87" data-name="Path 87" d="M8.221,85.33H6.394v3.958H0v1.827H6.394v3.958H8.221V91.115h6.394V89.288H8.221Z" transform="translate(0 0)" fill="#d80027"/>
      <g id="Group_188" data-name="Group 188" transform="translate(8.896 91.896)">
        <path id="Path_88" data-name="Path 88" d="M393.785,315.358l3.375,1.875v-1.875Z" transform="translate(-391.44 -315.358)" fill="#0052b4"/>
        <path id="Path_89" data-name="Path 89" d="M311.652,315.358l5.719,3.177v-.9l-4.1-2.279Z" transform="translate(-311.652 -315.358)" fill="#0052b4"/>
        <path id="Path_90" data-name="Path 90" d="M315.848,347.329l-4.2-2.331v2.331Z" transform="translate(-311.652 -344.152)" fill="#0052b4"/>
      </g>
      <path id="Path_91" data-name="Path 91" d="M311.652,315.358l5.719,3.177v-.9l-4.1-2.279Z" transform="translate(-302.756 -223.462)" fill="#f0f0f0"/>
      <path id="Path_92" data-name="Path 92" d="M311.652,315.358l5.719,3.177v-.9l-4.1-2.279Z" transform="translate(-302.756 -223.462)" fill="#d80027"/>
      <g id="Group_189" data-name="Group 189" transform="translate(0 91.896)">
        <path id="Path_93" data-name="Path 93" d="M2.579,315.356,0,316.789v-1.433Z" transform="translate(0 -315.356)" fill="#0052b4"/>
        <path id="Path_94" data-name="Path 94" d="M30.482,329.51v2.773H25.491Z" transform="translate(-24.763 -329.106)" fill="#0052b4"/>
      </g>
      <path id="Path_95" data-name="Path 95" d="M4.1,315.358,0,317.637v.9H0l5.719-3.177Z" transform="translate(0 -223.462)" fill="#d80027"/>
      <g id="Group_190" data-name="Group 190" transform="translate(0 85.33)">
        <path id="Path_96" data-name="Path 96" d="M3.375,132.833,0,130.958v1.875Z" transform="translate(0 -129.655)" fill="#0052b4"/>
        <path id="Path_97" data-name="Path 97" d="M5.719,88.507,0,85.33v.9l4.1,2.279Z" transform="translate(0 -85.33)" fill="#0052b4"/>
        <path id="Path_98" data-name="Path 98" d="M53.366,85.33l4.2,2.331V85.33Z" transform="translate(-51.843 -85.33)" fill="#0052b4"/>
      </g>
      <path id="Path_99" data-name="Path 99" d="M5.719,88.507,0,85.33v.9l4.1,2.279Z" transform="translate(0 0)" fill="#f0f0f0"/>
      <path id="Path_100" data-name="Path 100" d="M5.719,88.507,0,85.33v.9l4.1,2.279Z" transform="translate(0 0)" fill="#d80027"/>
      <g id="Group_191" data-name="Group 191" transform="translate(8.896 85.33)">
        <path id="Path_101" data-name="Path 101" d="M421.659,147.879l2.579-1.433v1.433Z" transform="translate(-418.519 -144.701)" fill="#0052b4"/>
        <path id="Path_102" data-name="Path 102" d="M311.652,88.1V85.331h4.991Z" transform="translate(-311.652 -85.331)" fill="#0052b4"/>
      </g>
      <path id="Path_103" data-name="Path 103" d="M313.269,88.507l4.1-2.279v-.9h0l-5.719,3.177Z" transform="translate(-302.756 0)" fill="#d80027"/>
    </g>
  </g>
</svg>
