<svg xmlns="http://www.w3.org/2000/svg" width="23" height="18.244" viewBox="0 0 23 18.244">
  <path id="camera" d="M5.531,63.708A5.969,5.969,0,1,0,15.938,59.72a.337.337,0,0,0-.5.451,5.291,5.291,0,1,1-1.154-.966.337.337,0,1,0,.355-.573,5.967,5.967,0,0,0-9.108,5.075Zm7.631-8.313a.337.337,0,0,0,0-.674H9.838a.337.337,0,1,0,0,.674Zm-.309,6.829H10.147a.905.905,0,0,0-.9.9v1.159a.905.905,0,0,0,.9.9h2.706a.905.905,0,0,0,.9-.9V63.128A.905.905,0,0,0,12.853,62.224Zm.23,2.064a.231.231,0,0,1-.23.23H10.147a.231.231,0,0,1-.23-.23V63.128a.231.231,0,0,1,.23-.23h2.706a.231.231,0,0,1,.23.23Zm8.391-8.173-.338-.032.052-.56a.791.791,0,0,0-.71-.855l-2.178-.2a.788.788,0,0,0-.856.71l-.051.553L16.063,55.6a.559.559,0,0,1-.446-.3l-.871-1.688a1.231,1.231,0,0,0-1.1-.669h-4.3a1.231,1.231,0,0,0-1.1.669L7.383,55.3a.559.559,0,0,1-.446.3l-1.331.126-.051-.554a.788.788,0,0,0-.856-.709l-2.178.2a.79.79,0,0,0-.71.855l.052.56-.337.032A1.678,1.678,0,0,0,0,57.791V69.5a1.686,1.686,0,0,0,1.685,1.685H3.556a.337.337,0,1,0,0-.674H1.685A1.012,1.012,0,0,1,.674,69.5V67.622H2.56A1.237,1.237,0,0,0,3.8,66.386V61.029A1.237,1.237,0,0,0,2.56,59.794H.674v-2a1.007,1.007,0,0,1,.916-1.006L7,56.273a1.23,1.23,0,0,0,.981-.663l.871-1.688a.56.56,0,0,1,.5-.3h4.3a.559.559,0,0,1,.5.3l.871,1.688a1.23,1.23,0,0,0,.981.663l5.411.512a1.007,1.007,0,0,1,.916,1.006v2H20.44A1.237,1.237,0,0,0,19.2,61.029v5.357a1.237,1.237,0,0,0,1.235,1.235h1.886V69.5a1.012,1.012,0,0,1-1.011,1.011H5.128a.337.337,0,1,0,0,.674H21.315A1.686,1.686,0,0,0,23,69.5V57.791a1.678,1.678,0,0,0-1.526-1.677ZM2.56,60.468a.562.562,0,0,1,.562.562v5.357a.562.562,0,0,1-.562.562H.674v-6.48Zm-.026-4.449-.052-.559a.105.105,0,0,1,.1-.122l2.178-.2a.113.113,0,0,1,.123.1l.051.555Zm17.932,0-2.4-.227.051-.554a.113.113,0,0,1,.123-.1l2.178.2a.105.105,0,0,1,.1.122Zm1.86,10.929H20.44a.562.562,0,0,1-.562-.562V61.029a.562.562,0,0,1,.562-.562h1.886ZM11.5,59.446a4.262,4.262,0,1,0,4.262,4.262A4.267,4.267,0,0,0,11.5,59.446Zm0,7.851a3.588,3.588,0,1,1,3.588-3.588A3.592,3.592,0,0,1,11.5,67.3ZM4.56,57.346A1.056,1.056,0,1,0,5.615,58.4,1.057,1.057,0,0,0,4.56,57.346Zm0,1.438a.382.382,0,1,1,.382-.382A.382.382,0,0,1,4.56,58.783Z" transform="translate(0 -52.944)"/>
</svg>
