<svg xmlns="http://www.w3.org/2000/svg" width="25.291" height="23.303" viewBox="0 0 25.291 23.303">
  <g id="computer-set" transform="translate(0 -17.887)">
    <path id="Path_111" data-name="Path 111" d="M63.194,393.266H60.958v-1.281a.417.417,0,0,0-.834,0v1.281H57.169v-1.281a.417.417,0,0,0-.834,0v1.281H54.1a.417.417,0,1,0,0,.834h9.1a.417.417,0,1,0,0-.834Z" transform="translate(-50.698 -352.91)"/>
    <path id="Path_112" data-name="Path 112" d="M40.256,321.568H28.417a.417.417,0,1,0,0,.834H40.256a.417.417,0,1,0,0-.834Z" transform="translate(-26.444 -286.801)"/>
    <path id="Path_113" data-name="Path 113" d="M14.369,187.568H1.529A1.53,1.53,0,0,0,0,189.1v7.448a1.53,1.53,0,0,0,1.529,1.529h12.84a1.53,1.53,0,0,0,1.529-1.529V189.1A1.53,1.53,0,0,0,14.369,187.568Zm.695,8.977a.7.7,0,0,1-.695.695H1.529a.7.7,0,0,1-.695-.695V189.1a.7.7,0,0,1,.695-.695h12.84a.7.7,0,0,1,.695.695Z" transform="translate(0 -160.25)"/>
    <path id="Path_114" data-name="Path 114" d="M361.751,358.113A1.251,1.251,0,1,0,363,359.364,1.252,1.252,0,0,0,361.751,358.113Zm0,1.668a.417.417,0,1,1,.417-.417A.417.417,0,0,1,361.751,359.781Z" transform="translate(-340.462 -321.315)"/>
    <path id="Path_115" data-name="Path 115" d="M409.445,297.841a.445.445,0,1,0,.445.445A.445.445,0,0,0,409.445,297.841Z" transform="translate(-386.266 -264.393)"/>
    <path id="Path_116" data-name="Path 116" d="M318.587,112.288h-.695v-1.806a.417.417,0,0,0-.417-.417h-4.947a.417.417,0,0,0-.417.417v.417h-.278v-2.64a.417.417,0,1,0-.834,0v3.057a.417.417,0,0,0,.417.417h.695v.556h-.695a.417.417,0,0,0-.417.417v13.022a.417.417,0,0,0,.417.417h7.17a.417.417,0,0,0,.417-.417V112.7A.417.417,0,0,0,318.587,112.288Zm-5.642-1.39h4.113v1.39h-4.113Zm5.225,14.411h-6.337V113.122h6.337Z" transform="translate(-293.713 -84.954)"/>
    <path id="Path_117" data-name="Path 117" d="M345.252,227.841h-3.835a.417.417,0,0,0,0,.834h3.835a.417.417,0,0,0,0-.834Z" transform="translate(-322.046 -198.284)"/>
    <path id="Path_118" data-name="Path 118" d="M345.252,267.841h-3.835a.417.417,0,0,0,0,.834h3.835a.417.417,0,0,0,0-.834Z" transform="translate(-322.046 -236.061)"/>
    <path id="Path_119" data-name="Path 119" d="M268.7,48.965a.417.417,0,1,0,.59.59,2.922,2.922,0,0,1,4.127,0,.417.417,0,1,0,.59-.59,3.756,3.756,0,0,0-5.306,0Z" transform="translate(-253.646 -28.315)"/>
    <path id="Path_120" data-name="Path 120" d="M248.072,20.061a4.591,4.591,0,0,1,6.485,0,.417.417,0,1,0,.59-.59,5.426,5.426,0,0,0-7.664,0,.417.417,0,0,0,.59.59Z" transform="translate(-233.611)"/>
    <path id="Path_121" data-name="Path 121" d="M292.267,79.058a.417.417,0,1,0,.59-.59,2.087,2.087,0,0,0-2.948,0,.417.417,0,1,0,.59.59,1.251,1.251,0,0,1,1.769,0Z" transform="translate(-273.679 -56.638)"/>
  </g>
</svg>
