<svg xmlns="http://www.w3.org/2000/svg" width="18" height="12" viewBox="0 0 18 12">
  <g id="credit-card" transform="translate(0 -85.333)">
    <g id="Group_9" data-name="Group 9" transform="translate(0 85.333)">
      <g id="Group_8" data-name="Group 8" transform="translate(0 0)">
        <path id="Path_6" data-name="Path 6" d="M16.125,85.333H1.875A1.878,1.878,0,0,0,0,87.208v8.25a1.878,1.878,0,0,0,1.875,1.875h14.25A1.878,1.878,0,0,0,18,95.458v-8.25A1.878,1.878,0,0,0,16.125,85.333ZM17.25,95.458a1.126,1.126,0,0,1-1.125,1.125H1.875A1.126,1.126,0,0,1,.75,95.458v-8.25a1.126,1.126,0,0,1,1.125-1.125h14.25a1.126,1.126,0,0,1,1.125,1.125v8.25Z" transform="translate(0 -85.333)" fill="#fff"/>
      </g>
    </g>
    <g id="Group_11" data-name="Group 11" transform="translate(0 87.583)">
      <g id="Group_10" data-name="Group 10" transform="translate(0 0)">
        <path id="Path_7" data-name="Path 7" d="M17.625,149.333H.375a.375.375,0,0,0-.375.375v2.25a.375.375,0,0,0,.375.375h17.25a.375.375,0,0,0,.375-.375v-2.25A.375.375,0,0,0,17.625,149.333Zm-.375,2.25H.75v-1.5h16.5v1.5Z" transform="translate(0 -149.333)" fill="#fff"/>
      </g>
    </g>
    <g id="Group_13" data-name="Group 13" transform="translate(2.25 92.833)">
      <g id="Group_12" data-name="Group 12" transform="translate(0 0)">
        <path id="Path_8" data-name="Path 8" d="M68.875,298.667h-4.5a.375.375,0,1,0,0,.75h4.5a.375.375,0,1,0,0-.75Z" transform="translate(-64 -298.667)" fill="#fff"/>
      </g>
    </g>
    <g id="Group_15" data-name="Group 15" transform="translate(2.25 94.333)">
      <g id="Group_14" data-name="Group 14" transform="translate(0 0)">
        <path id="Path_9" data-name="Path 9" d="M68.875,341.333h-4.5a.375.375,0,1,0,0,.75h4.5a.375.375,0,1,0,0-.75Z" transform="translate(-64 -341.333)" fill="#fff"/>
      </g>
    </g>
    <g id="Group_17" data-name="Group 17" transform="translate(12.75 92.083)">
      <g id="Group_16" data-name="Group 16" transform="translate(0 0)">
        <path id="Path_10" data-name="Path 10" d="M364.542,277.333h-.75a1.126,1.126,0,0,0-1.125,1.125v.75a1.126,1.126,0,0,0,1.125,1.125h.75a1.126,1.126,0,0,0,1.125-1.125v-.75A1.126,1.126,0,0,0,364.542,277.333Zm.375,1.875a.375.375,0,0,1-.375.375h-.75a.375.375,0,0,1-.375-.375v-.75a.375.375,0,0,1,.375-.375h.75a.375.375,0,0,1,.375.375Z" transform="translate(-362.667 -277.333)" fill="#fff"/>
      </g>
    </g>
  </g>
</svg>
