<svg xmlns="http://www.w3.org/2000/svg" width="23" height="14.839" viewBox="0 0 23 14.839">
  <g id="keyboard" transform="translate(-8 -96)">
    <path id="Path_146" data-name="Path 146" d="M29.145,96H12.452a.371.371,0,0,0-.371.371v1.855a.371.371,0,0,0,.371.371h8.9v1.484H16.532a.371.371,0,0,0-.371.371v1.855H9.113A1.114,1.114,0,0,0,8,103.419v6.306a1.114,1.114,0,0,0,1.113,1.113H23.952a1.114,1.114,0,0,0,1.113-1.113v-6.306a1.114,1.114,0,0,0-1.113-1.113H16.9v-1.484h4.823a.371.371,0,0,0,.371-.371V98.226a.371.371,0,0,0-.371-.371h-8.9V96.742H29.145a.371.371,0,1,0,0-.742Zm-5.194,7.048a.371.371,0,0,1,.371.371v6.306a.371.371,0,0,1-.371.371H9.113a.371.371,0,0,1-.371-.371v-6.306a.371.371,0,0,1,.371-.371Z"/>
    <path id="Path_147" data-name="Path 147" d="M133.565,352h-5.194a.371.371,0,0,0-.371.371v1.113a.371.371,0,0,0,.371.371h5.194a.371.371,0,0,0,.371-.371v-1.113A.371.371,0,0,0,133.565,352Zm-.371,1.113h-4.452v-.371h4.452Z" transform="translate(-114.435 -244.129)"/>
    <path id="Path_148" data-name="Path 148" d="M144,304.371v1.113a.371.371,0,0,0,.371.371h1.113a.371.371,0,0,0,.371-.371v-1.113a.371.371,0,0,0-.371-.371h-1.113A.371.371,0,0,0,144,304.371Zm.742.371h.371v.371h-.371Z" transform="translate(-129.694 -198.355)"/>
    <path id="Path_149" data-name="Path 149" d="M200,304.371v1.113a.371.371,0,0,0,.371.371h1.113a.371.371,0,0,0,.371-.371v-1.113a.371.371,0,0,0-.371-.371h-1.113A.371.371,0,0,0,200,304.371Zm.742.371h.371v.371h-.371Z" transform="translate(-183.097 -198.355)"/>
    <path id="Path_150" data-name="Path 150" d="M32.371,305.855h1.113a.371.371,0,0,0,.371-.371v-1.113a.371.371,0,0,0-.371-.371H32.371a.371.371,0,0,0-.371.371v1.113A.371.371,0,0,0,32.371,305.855Zm.371-1.113h.371v.371h-.371Z" transform="translate(-22.887 -198.355)"/>
    <path id="Path_151" data-name="Path 151" d="M89.855,304.371a.371.371,0,0,0-.371-.371H88.371a.371.371,0,0,0-.371.371v1.113a.371.371,0,0,0,.371.371h1.113a.371.371,0,0,0,.371-.371Zm-.742.742h-.371v-.371h.371Z" transform="translate(-76.29 -198.355)"/>
    <path id="Path_152" data-name="Path 152" d="M257.855,305.484v-1.113a.371.371,0,0,0-.371-.371h-1.113a.371.371,0,0,0-.371.371v1.113a.371.371,0,0,0,.371.371h1.113A.371.371,0,0,0,257.855,305.484Zm-.742-.371h-.371v-.371h.371Z" transform="translate(-236.5 -198.355)"/>
    <path id="Path_153" data-name="Path 153" d="M313.484,304h-1.113a.371.371,0,0,0-.371.371v1.113a.371.371,0,0,0,.371.371h1.113a.371.371,0,0,0,.371-.371v-1.113A.371.371,0,0,0,313.484,304Zm-.371,1.113h-.371v-.371h.371Z" transform="translate(-289.903 -198.355)"/>
    <path id="Path_154" data-name="Path 154" d="M176.371,257.855h1.113a.371.371,0,0,0,.371-.371v-1.113a.371.371,0,0,0-.371-.371h-1.113a.371.371,0,0,0-.371.371v1.113A.371.371,0,0,0,176.371,257.855Zm.371-1.113h.371v.371h-.371Z" transform="translate(-160.21 -152.581)"/>
    <path id="Path_155" data-name="Path 155" d="M232.371,257.855h1.113a.371.371,0,0,0,.371-.371v-1.113a.371.371,0,0,0-.371-.371h-1.113a.371.371,0,0,0-.371.371v1.113A.371.371,0,0,0,232.371,257.855Zm.371-1.113h.371v.371h-.371Z" transform="translate(-213.613 -152.581)"/>
    <path id="Path_156" data-name="Path 156" d="M64.371,257.855h1.113a.371.371,0,0,0,.371-.371v-1.113a.371.371,0,0,0-.371-.371H64.371a.371.371,0,0,0-.371.371v1.113A.371.371,0,0,0,64.371,257.855Zm.371-1.113h.371v.371h-.371Z" transform="translate(-53.403 -152.581)"/>
    <path id="Path_157" data-name="Path 157" d="M120.371,257.855h1.113a.371.371,0,0,0,.371-.371v-1.113a.371.371,0,0,0-.371-.371h-1.113a.371.371,0,0,0-.371.371v1.113A.371.371,0,0,0,120.371,257.855Zm.371-1.113h.371v.371h-.371Z" transform="translate(-106.806 -152.581)"/>
    <path id="Path_158" data-name="Path 158" d="M288.371,257.855h1.113a.371.371,0,0,0,.371-.371v-1.113a.371.371,0,0,0-.371-.371h-1.113a.371.371,0,0,0-.371.371v1.113A.371.371,0,0,0,288.371,257.855Zm.371-1.113h.371v.371h-.371Z" transform="translate(-267.016 -152.581)"/>
    <path id="Path_159" data-name="Path 159" d="M34.968,368h-2.6a.371.371,0,1,0,0,.742h2.6a.371.371,0,1,0,0-.742Z" transform="translate(-22.887 -259.387)"/>
    <path id="Path_160" data-name="Path 160" d="M282.968,368h-2.6a.371.371,0,1,0,0,.742h2.6a.371.371,0,1,0,0-.742Z" transform="translate(-259.387 -259.387)"/>
    <path id="Path_161" data-name="Path 161" d="M394.6,240a2.6,2.6,0,0,0-2.6,2.6v2.968a2.6,2.6,0,0,0,5.194,0V242.6A2.6,2.6,0,0,0,394.6,240Zm0,7.419a1.857,1.857,0,0,1-1.855-1.855v-1.484h3.71v1.484A1.857,1.857,0,0,1,394.6,247.419Zm1.855-4.081h-3.71V242.6a1.855,1.855,0,0,1,3.71,0Z" transform="translate(-366.194 -137.323)"/>
    <path id="Path_162" data-name="Path 162" d="M440.371,264a.371.371,0,0,0-.371.371v1.113a.371.371,0,0,0,.742,0v-1.113A.371.371,0,0,0,440.371,264Z" transform="translate(-411.968 -160.21)"/>
    <path id="Path_163" data-name="Path 163" d="M480.371,96.742h.371a.371.371,0,1,0,0-.742h-.371a.371.371,0,1,0,0,.742Z" transform="translate(-450.113)"/>
  </g>
</svg>
