<svg xmlns="http://www.w3.org/2000/svg" width="24.868" height="17.051" viewBox="0 0 24.868 17.051">
  <g id="laptop" transform="translate(0 -80.475)">
    <g id="Group_213" data-name="Group 213" transform="translate(0 80.475)">
      <g id="Group_212" data-name="Group 212" transform="translate(0 0)">
        <path id="Path_106" data-name="Path 106" d="M24.506,94.783h-.728V81.966a1.493,1.493,0,0,0-1.491-1.491H2.581a1.493,1.493,0,0,0-1.491,1.491V94.783H.363A.363.363,0,0,0,0,95.146v.434a1.948,1.948,0,0,0,1.945,1.945H17.876a.363.363,0,1,0,0-.726H1.945a1.221,1.221,0,0,1-1.22-1.22v-.072H9.387v.646a.363.363,0,0,0,.363.363h5.369a.363.363,0,0,0,.363-.363v-.646h8.661v.072a1.221,1.221,0,0,1-1.22,1.22H20.44a.363.363,0,1,0,0,.726h2.483a1.948,1.948,0,0,0,1.945-1.945v-.434A.363.363,0,0,0,24.506,94.783Zm-9.75,1.009H10.112v-.283h4.644Zm8.3-1.039H1.816V81.966a.766.766,0,0,1,.765-.765H22.287a.766.766,0,0,1,.765.765V94.753Z" transform="translate(0 -80.475)"/>
      </g>
    </g>
    <g id="Group_215" data-name="Group 215" transform="translate(2.409 81.89)">
      <g id="Group_214" data-name="Group 214" transform="translate(0 0)">
        <path id="Path_107" data-name="Path 107" d="M68.577,109.615h-17.9a1.074,1.074,0,0,0-1.073,1.073v3.86a.363.363,0,0,0,.726,0v-3.86a.348.348,0,0,1,.347-.347h17.9a.348.348,0,0,1,.347.347v10.419h-18.6V117.16a.363.363,0,0,0-.726,0v4.309a.363.363,0,0,0,.363.363H69.287a.363.363,0,0,0,.363-.363V110.688A1.074,1.074,0,0,0,68.577,109.615Z" transform="translate(-49.6 -109.615)"/>
      </g>
    </g>
  </g>
</svg>
