<svg xmlns="http://www.w3.org/2000/svg" width="14" height="14" viewBox="0 0 14 14">
  <path id="Path_5" data-name="Path 5" d="M13.965,12a.547.547,0,0,0-1.071.223.571.571,0,0,1-.116.479.556.556,0,0,1-.437.208H1.66a.556.556,0,0,1-.437-.208.571.571,0,0,1-.116-.479A6.042,6.042,0,0,1,6.855,7.435l.145,0,.146,0A6.016,6.016,0,0,1,12,10.105a.547.547,0,1,0,.908-.609A7.113,7.113,0,0,0,9.227,6.7a3.719,3.719,0,1,0-4.451,0A7.113,7.113,0,0,0,.036,12,1.661,1.661,0,0,0,1.66,14H12.341a1.661,1.661,0,0,0,1.624-2ZM4.375,3.719A2.625,2.625,0,1,1,7.133,6.34H6.868A2.628,2.628,0,0,1,4.375,3.719Z" transform="translate(0)" fill="#fff"/>
</svg>
