<svg xmlns="http://www.w3.org/2000/svg" width="24.868" height="20.041" viewBox="0 0 24.868 20.041">
  <g id="printer" transform="translate(0 -49.699)">
    <path id="Path_164" data-name="Path 164" d="M22.895,56.136h-2.05V54.059A1.143,1.143,0,0,0,19.7,52.918h-.468V50.452a.754.754,0,0,0-.753-.753H15.421a.364.364,0,0,0,0,.729h3.062a.024.024,0,0,1,.024.024v7.294H6.361V50.452a.024.024,0,0,1,.024-.024h7.578a.364.364,0,0,0,0-.729H6.385a.754.754,0,0,0-.753.753v2.466H5.165a1.143,1.143,0,0,0-1.141,1.141v2.077H1.974A1.976,1.976,0,0,0,0,58.11v7.242a1.976,1.976,0,0,0,1.974,1.974H5.633v1.661a.754.754,0,0,0,.753.753h12.1a.754.754,0,0,0,.753-.753V67.326h3.659a1.976,1.976,0,0,0,1.974-1.974V58.11A1.976,1.976,0,0,0,22.895,56.136ZM19.7,53.646a.413.413,0,0,1,.413.413v2.077h-.881v-2.49Zm-14.952.413a.413.413,0,0,1,.413-.413h.468v2.49H4.752ZM1.974,56.865h2.05v2.05a1.17,1.17,0,0,0,1.169,1.169H8.01a.364.364,0,0,0,0-.729H5.192a.441.441,0,0,1-.44-.44v-2.05h.881V58.11A.364.364,0,0,0,6,58.474H18.872a.364.364,0,0,0,.364-.364V56.865h.881v2.05a.441.441,0,0,1-.44.44H9.467a.364.364,0,0,0,0,.729H19.676a1.17,1.17,0,0,0,1.169-1.169v-2.05h2.05A1.246,1.246,0,0,1,24.14,58.11v3.659H.729V58.11a1.246,1.246,0,0,1,1.245-1.245ZM.729,65.352V62.5H4.023v4.1H1.974A1.246,1.246,0,0,1,.729,65.352Zm17.779,3.635a.024.024,0,0,1-.024.024H6.385a.024.024,0,0,1-.024-.024V64.912H18.507Zm.364-4.8H6a.364.364,0,0,0-.364.364V66.6H4.752V62.5H20.117v4.1h-.881v-2.05A.364.364,0,0,0,18.872,64.183ZM22.895,66.6h-2.05V62.5H24.14v2.854A1.246,1.246,0,0,1,22.895,66.6Z"/>
    <path id="Path_165" data-name="Path 165" d="M33.5,347.9a.364.364,0,0,0-.364.364v.8a.364.364,0,1,0,.729,0v-.8A.364.364,0,0,0,33.5,347.9Z" transform="translate(-31.523 -283.717)"/>
    <path id="Path_166" data-name="Path 166" d="M464.232,347.9a.364.364,0,0,0-.364.364v.8a.364.364,0,0,0,.729,0v-.8A.364.364,0,0,0,464.232,347.9Z" transform="translate(-441.337 -283.717)"/>
    <path id="Path_167" data-name="Path 167" d="M181.168,381.034H174.7a.754.754,0,0,0-.753.753v.832a.754.754,0,0,0,.753.753h6.465a.754.754,0,0,0,.753-.753v-.832A.754.754,0,0,0,181.168,381.034Zm.024,1.585a.024.024,0,0,1-.024.024H174.7a.024.024,0,0,1-.024-.024v-.832a.024.024,0,0,1,.024-.024h6.465a.024.024,0,0,1,.024.024Z" transform="translate(-165.501 -315.242)"/>
  </g>
</svg>
