<svg xmlns="http://www.w3.org/2000/svg" width="16.903" height="25.671" viewBox="0 0 16.903 25.671">
  <g id="smartwatch" transform="translate(-87.435)">
    <path id="Path_122" data-name="Path 122" d="M103.407,9.224h-.687V7.439A2.247,2.247,0,0,0,100.541,5.2a10.253,10.253,0,0,1-1.088-4A1.3,1.3,0,0,0,98.164,0H95.829a.376.376,0,1,0,0,.752h2.335a.543.543,0,0,1,.54.5,11.274,11.274,0,0,0,1,3.944H90.451a11.274,11.274,0,0,0,1-3.944.544.544,0,0,1,.54-.5h2.335a.376.376,0,1,0,0-.752H91.991A1.3,1.3,0,0,0,90.7,1.19a10.253,10.253,0,0,1-1.088,4,2.247,2.247,0,0,0-2.178,2.244v3.155a.376.376,0,0,0,.752,0V7.439A1.5,1.5,0,0,1,89.68,5.946h10.794a1.5,1.5,0,0,1,1.493,1.493V18.233a1.5,1.5,0,0,1-1.493,1.493H89.68a1.5,1.5,0,0,1-1.493-1.493V12.1a.376.376,0,1,0-.752,0v6.135a2.247,2.247,0,0,0,2.178,2.244,10.253,10.253,0,0,1,1.088,4,1.3,1.3,0,0,0,1.29,1.19h6.173a1.3,1.3,0,0,0,1.29-1.19,10.253,10.253,0,0,1,1.088-4,2.247,2.247,0,0,0,2.178-2.244V12.885h.687a.933.933,0,0,0,.932-.932v-1.8a.933.933,0,0,0-.932-.932Zm-4.7,15.2a.544.544,0,0,1-.54.5H91.991a.543.543,0,0,1-.54-.5,11.274,11.274,0,0,0-1-3.944H99.7a11.273,11.273,0,0,0-1,3.944Zm4.882-12.469a.18.18,0,0,1-.18.18h-.687V9.976h.687a.18.18,0,0,1,.18.18Z" transform="translate(0 0)"/>
    <path id="Path_123" data-name="Path 123" d="M197.626,174.982v3.329h-1.457a.376.376,0,1,0,0,.752H198a.376.376,0,0,0,.376-.376v-3.705a.376.376,0,0,0-.752,0Z" transform="translate(-102.925 -165.851)"/>
    <path id="Path_124" data-name="Path 124" d="M258.677,288.2a2.077,2.077,0,0,0-3.884,0c0,.994,1.118,1.656,1.785,1.961a.376.376,0,0,0,.314,0C257.559,289.853,258.677,289.191,258.677,288.2Zm-1.942,1.2c-.748-.372-1.19-.816-1.19-1.2a.408.408,0,0,1,.407-.434.487.487,0,0,1,.43.315.37.37,0,0,0,.35.252.381.381,0,0,0,.357-.254.486.486,0,0,1,.429-.313.408.408,0,0,1,.407.434C257.925,288.584,257.484,289.027,256.736,289.4Z" transform="translate(-158.968 -272.62)"/>
    <path id="Path_125" data-name="Path 125" d="M127.432,145.857h1.54a.742.742,0,0,0,.741-.741V134.322a.742.742,0,0,0-.741-.741H118.178a.742.742,0,0,0-.741.741v10.794a.742.742,0,0,0,.741.741h7.751a.376.376,0,0,0,0-.752h-7.74V134.333h10.772V145.1h-1.529a.376.376,0,0,0,0,.752Z" transform="translate(-28.498 -126.883)"/>
  </g>
</svg>
