<svg xmlns="http://www.w3.org/2000/svg" width="22.801" height="26.299" viewBox="0 0 22.801 26.299">
  <g id="smartphone-mobile_game_controller-game_controller-wireless-buletooth" data-name="smartphone-mobile game controller-game controller-wireless-buletooth" transform="translate(-5.982 -2)">
    <path id="Path_126" data-name="Path 126" d="M24.837,14.273a3.949,3.949,0,0,0-3.279,1.753h-2.42V15.15h.877a1.319,1.319,0,0,0,1.315-1.315V13.4H24.4A2.192,2.192,0,0,0,26.591,11.2V5.945A2.192,2.192,0,0,0,24.4,3.753H21.331V3.315A1.319,1.319,0,0,0,20.016,2h-5.26a1.319,1.319,0,0,0-1.315,1.315v.438H10.373A2.192,2.192,0,0,0,8.181,5.945V11.2A2.192,2.192,0,0,0,10.373,13.4h3.068v.438a1.319,1.319,0,0,0,1.315,1.315h.877v.877h-2.42a3.945,3.945,0,1,0-5.356,5.54l.267,3.756a1.319,1.319,0,0,0,1.311,1.223h1a1.319,1.319,0,0,0,1.311-1.223l.162-2.284h2.476l.57,3.428A2.186,2.186,0,0,0,17.119,28.3h.535a2.186,2.186,0,0,0,2.165-1.832l.57-3.428h2.476l.162,2.284a1.319,1.319,0,0,0,1.311,1.223h1a1.319,1.319,0,0,0,1.311-1.223l.267-3.756a3.942,3.942,0,0,0-2.078-7.294ZM14.318,3.315a.438.438,0,0,1,.438-.438h5.26a.438.438,0,0,1,.438.438v.438H14.318Zm-3.945,9.2A1.319,1.319,0,0,1,9.058,11.2V5.945A1.319,1.319,0,0,1,10.373,4.63H24.4a1.319,1.319,0,0,1,1.315,1.315V11.2A1.319,1.319,0,0,1,24.4,12.52Zm4.383,1.753a.438.438,0,0,1-.438-.438V13.4h6.136v.438a.438.438,0,0,1-.438.438Zm3.507.877v.877H16.509V15.15ZM10.868,25.261a.438.438,0,0,1-.434.408h-1A.438.438,0,0,1,9,25.261l-.237-3.274a3.994,3.994,0,0,0,2.341,0Zm-.934-3.976A3.068,3.068,0,1,1,13,18.218a3.068,3.068,0,0,1-3.068,3.068Zm10.081.877a.438.438,0,0,0-.434.368l-.631,3.8a1.306,1.306,0,0,1-1.3,1.1h-.535a1.306,1.306,0,0,1-1.3-1.1l-.631-3.8a.438.438,0,0,0-.434-.368H11.968l.044-.6a3.948,3.948,0,0,0,1.867-3.349,3.859,3.859,0,0,0-.232-1.315h7.478a3.859,3.859,0,0,0-.232,1.315,3.948,3.948,0,0,0,1.867,3.349l.044.6Zm5.755,3.1a.438.438,0,0,1-.434.408h-1a.438.438,0,0,1-.434-.408l-.237-3.274a3.994,3.994,0,0,0,2.341,0Zm-.934-3.976a3.068,3.068,0,1,1,3.068-3.068A3.068,3.068,0,0,1,24.837,21.286Z"/>
    <path id="Path_127" data-name="Path 127" d="M14,35h.877v.877H14Z" transform="translate(-4.504 -18.536)"/>
    <path id="Path_128" data-name="Path 128" d="M11,38h.877v.877H11Z" transform="translate(-2.819 -20.221)"/>
    <path id="Path_129" data-name="Path 129" d="M14,41h.877v.877H14Z" transform="translate(-4.504 -21.906)"/>
    <path id="Path_130" data-name="Path 130" d="M17,38h.877v.877H17Z" transform="translate(-6.189 -20.221)"/>
    <path id="Path_131" data-name="Path 131" d="M46.192,34a2.192,2.192,0,1,0,2.192,2.192A2.192,2.192,0,0,0,46.192,34Zm.438,3.426v-.358h-.877v.358a1.315,1.315,0,0,1-.8-.8h.358v-.877h-.358a1.315,1.315,0,0,1,.8-.8v.358h.877v-.358a1.315,1.315,0,0,1,.8.8h-.358v.877h.358a1.315,1.315,0,0,1-.8.8Z" transform="translate(-21.354 -17.974)"/>
    <path id="Path_132" data-name="Path 132" d="M30.821,38H26.438a.438.438,0,0,0-.438.438v1.753a.438.438,0,0,0,.438.438h4.383a.438.438,0,0,0,.438-.438V38.438A.438.438,0,0,0,30.821,38Zm-.438,1.753H26.877v-.877h3.507Z" transform="translate(-11.244 -20.221)"/>
    <path id="Path_133" data-name="Path 133" d="M30.315,48a1.315,1.315,0,1,0,1.315,1.315A1.315,1.315,0,0,0,30.315,48Zm0,1.753a.438.438,0,1,1,.438-.438A.438.438,0,0,1,30.315,49.753Z" transform="translate(-12.929 -25.837)"/>
  </g>
</svg>
