<svg xmlns="http://www.w3.org/2000/svg" width="25.368" height="22.357" viewBox="0 0 25.368 22.357">
  <g id="vr-glasses" transform="translate(0.25 -30.75)">
    <path id="Path_108" data-name="Path 108" d="M21.711,153.914H21.42v-2.186a.729.729,0,0,0-1.457,0v2.186H3.157A3.161,3.161,0,0,0,0,157.071v6.8a3.161,3.161,0,0,0,3.157,3.157h5.69a2.428,2.428,0,0,0,2.265-1.534,1.424,1.424,0,0,1,2.644,0,2.428,2.428,0,0,0,2.265,1.534h5.69a3.161,3.161,0,0,0,3.157-3.157v-6.8A3.161,3.161,0,0,0,21.711,153.914Zm1.7,9.957a1.7,1.7,0,0,1-1.7,1.7h-5.69a.978.978,0,0,1-.912-.618,2.881,2.881,0,0,0-5.35,0,.978.978,0,0,1-.912.618H3.157a1.7,1.7,0,0,1-1.7-1.7v-6.8a1.7,1.7,0,0,1,1.7-1.7H21.711a1.7,1.7,0,0,1,1.7,1.7Z" transform="translate(0 -114.171)" stroke="#fff" stroke-width="0.5"/>
    <ellipse id="Ellipse_14" data-name="Ellipse 14" cx="1" cy="0.5" rx="1" ry="0.5" transform="translate(11 42.857)" stroke="#fff" stroke-width="0.5"/>
    <ellipse id="Ellipse_15" data-name="Ellipse 15" cx="1" cy="0.5" rx="1" ry="0.5" transform="translate(14 42.857)" stroke="#fff" stroke-width="0.5"/>
    <circle id="Ellipse_16" data-name="Ellipse 16" cx="0.5" cy="0.5" r="0.5" transform="translate(9 42.857)" stroke="#fff" stroke-width="0.5"/>
    <circle id="Ellipse_17" data-name="Ellipse 17" cx="0.729" cy="0.729" r="0.729" transform="translate(11.706 36.826)" stroke="#fff" stroke-width="0.5"/>
    <path id="Path_109" data-name="Path 109" d="M157.391,33.948a5.107,5.107,0,0,1,7.212,0,.729.729,0,1,0,1.03-1.03,6.564,6.564,0,0,0-9.273,0,.729.729,0,1,0,1.03,1.03Z" transform="translate(-148.563)" stroke="#fff" stroke-width="0.5"/>
    <path id="Path_110" data-name="Path 110" d="M203.423,93.254a.729.729,0,0,0,.515-1.244,3.643,3.643,0,0,0-5.152,0,.729.729,0,0,0,1.03,1.03,2.186,2.186,0,0,1,3.091,0A.727.727,0,0,0,203.423,93.254Z" transform="translate(-188.928 -57.032)" stroke="#fff" stroke-width="0.5"/>
  </g>
</svg>
