<svg xmlns="http://www.w3.org/2000/svg" width="23" height="17.561" viewBox="0 0 23 17.561">
  <g id="wifi-router" transform="translate(0 -60.546)">
    <path id="Path_134" data-name="Path 134" d="M175.969,72.828h-1.393L174.2,61.47a.956.956,0,0,0-1.91,0l-.375,11.358h-2.443a.338.338,0,1,0,0,.675h6.5a.563.563,0,0,1,.563.563v2.8a.563.563,0,0,1-.563.563H161.8a.338.338,0,0,0,0,.675h14.172a1.239,1.239,0,0,0,1.238-1.238v-2.8a1.239,1.239,0,0,0-1.238-1.238Zm-3-11.336a.281.281,0,0,1,.561,0l.374,11.336h-1.309Z" transform="translate(-154.207)"/>
    <path id="Path_135" data-name="Path 135" d="M6.24,77.431h-5a.563.563,0,0,1-.563-.563v-2.8a.563.563,0,0,1,.563-.563H13.916a.338.338,0,0,0,0-.675H5.291L4.916,61.47a.956.956,0,0,0-1.91,0l-.17,5.168a.338.338,0,1,0,.675.022l.17-5.168a.281.281,0,0,1,.561,0l.374,11.336H3.307l.159-4.818a.338.338,0,1,0-.675-.022l-.16,4.84H1.238A1.239,1.239,0,0,0,0,74.066v2.8a1.239,1.239,0,0,0,1.238,1.238h5a.338.338,0,1,0,0-.675Z"/>
    <path id="Path_136" data-name="Path 136" d="M51.064,401.189a.338.338,0,0,0,0,.675h1.078a.338.338,0,0,0,0-.675Z" transform="translate(-48.447 -325.341)"/>
    <path id="Path_137" data-name="Path 137" d="M108.81,401.189h-1.078a.338.338,0,0,0,0,.675h1.078a.338.338,0,0,0,0-.675Z" transform="translate(-102.57 -325.341)"/>
    <path id="Path_138" data-name="Path 138" d="M164.4,401.189a.338.338,0,0,0,0,.675h1.078a.338.338,0,0,0,0-.675Z" transform="translate(-156.693 -325.341)"/>
    <path id="Path_139" data-name="Path 139" d="M221.071,401.189a.338.338,0,0,0,0,.675h1.078a.338.338,0,0,0,0-.675Z" transform="translate(-210.817 -325.341)"/>
    <path id="Path_140" data-name="Path 140" d="M368.03,401.863a.338.338,0,0,0,0-.675h-1.078a.338.338,0,1,0,0,.675Z" transform="translate(-350.145 -325.34)"/>
    <path id="Path_141" data-name="Path 141" d="M423.927,401.863a.338.338,0,0,0,0-.675h-1.078a.338.338,0,1,0,0,.675Z" transform="translate(-403.531 -325.34)"/>
    <path id="Path_142" data-name="Path 142" d="M151.753,133.451a5.851,5.851,0,0,1,8.266,0,.338.338,0,0,0,.477-.477,6.527,6.527,0,0,0-9.22,0,.338.338,0,0,0,.477.477Z" transform="translate(-144.385 -67.353)"/>
    <path id="Path_143" data-name="Path 143" d="M186.433,173.213a.338.338,0,0,0,0-.477,4.715,4.715,0,0,0-6.654-.006.338.338,0,1,0,.473.481,4.038,4.038,0,0,1,5.7,0A.338.338,0,0,0,186.433,173.213Z" transform="translate(-171.603 -105.835)"/>
    <path id="Path_144" data-name="Path 144" d="M211.651,212.3a.338.338,0,0,0,.239-.576,2.932,2.932,0,0,0-4.147,0,.338.338,0,0,0,.477.477,2.257,2.257,0,0,1,3.192,0A.337.337,0,0,0,211.651,212.3Z" transform="translate(-198.316 -143.562)"/>
    <path id="Path_145" data-name="Path 145" d="M232.216,245.885a.338.338,0,1,0,.478.477.7.7,0,0,1,.992,0,.338.338,0,0,0,.477-.477A1.379,1.379,0,0,0,232.216,245.885Z" transform="translate(-221.689 -176.63)"/>
  </g>
</svg>
